<svg width="29" height="22" viewBox="0 0 29 22" fill="none" xmlns="http://www.w3.org/2000/svg">
<path d="M28.9474 11C28.9474 11.4606 28.7644 11.9024 28.4387 12.2281C28.1129 12.5539 27.6712 12.7368 27.2105 12.7368H1.73684C1.2762 12.7368 0.83443 12.5539 0.508709 12.2281C0.182988 11.9024 0 11.4606 0 11C0 10.5394 0.182988 10.0976 0.508709 9.77187C0.83443 9.44615 1.2762 9.26316 1.73684 9.26316H27.2105C27.6712 9.26316 28.1129 9.44615 28.4387 9.77187C28.7644 10.0976 28.9474 10.5394 28.9474 11ZM1.73684 3.47368H27.2105C27.6712 3.47368 28.1129 3.2907 28.4387 2.96498C28.7644 2.63925 28.9474 2.19748 28.9474 1.73684C28.9474 1.2762 28.7644 0.83443 28.4387 0.508709C28.1129 0.182988 27.6712 0 27.2105 0H1.73684C1.2762 0 0.83443 0.182988 0.508709 0.508709C0.182988 0.83443 0 1.2762 0 1.73684C0 2.19748 0.182988 2.63925 0.508709 2.96498C0.83443 3.2907 1.2762 3.47368 1.73684 3.47368ZM27.2105 18.5263H1.73684C1.2762 18.5263 0.83443 18.7093 0.508709 19.035C0.182988 19.3607 0 19.8025 0 20.2632C0 20.7238 0.182988 21.1656 0.508709 21.4913C0.83443 21.817 1.2762 22 1.73684 22H27.2105C27.6712 22 28.1129 21.817 28.4387 21.4913C28.7644 21.1656 28.9474 20.7238 28.9474 20.2632C28.9474 19.8025 28.7644 19.3607 28.4387 19.035C28.1129 18.7093 27.6712 18.5263 27.2105 18.5263Z" fill="white"/>
</svg>
